<?xml version="1.0" standalone="no"?>
<!DOCTYPE svg PUBLIC "-//W3C//DTD SVG 20010904//EN"
 "http://www.w3.org/TR/2001/REC-SVG-20010904/DTD/svg10.dtd">
<svg version="1.0" xmlns="http://www.w3.org/2000/svg"
 width="200.000000pt" height="200.000000pt" viewBox="0 0 200.000000 200.000000"
 preserveAspectRatio="xMidYMid meet">
<metadata>
Created by potrace 1.11, written by Peter Selinger 2001-2013
</metadata>
<g transform="translate(0.000000,200.000000) scale(0.100000,-0.100000)"
fill="#000000" stroke="none">
<path d="M986 1776 c-14 -19 -23 -37 -19 -39 109 -65 117 -64 82 6 -17 34 -32
63 -34 65 -1 1 -14 -13 -29 -32z"/>
<path d="M883 1628 l-22 -31 47 -47 c39 -39 68 -56 167 -95 66 -26 126 -50
133 -53 8 -2 -2 26 -21 64 -35 68 -36 69 -108 99 -40 16 -95 44 -122 62 -27
18 -50 33 -51 33 0 0 -11 -14 -23 -32z"/>
<path d="M789 1504 c-15 -25 -14 -28 41 -112 l58 -87 213 -66 c118 -37 215
-65 217 -64 2 2 -8 25 -22 52 l-25 49 -128 46 c-70 26 -151 54 -180 64 -43 15
-60 29 -99 81 -26 35 -50 63 -54 63 -3 0 -12 -12 -21 -26z"/>
<path d="M729 1418 c-10 -22 -4 -40 49 -151 38 -78 67 -127 79 -131 10 -3 97
-24 193 -46 185 -44 200 -47 240 -55 14 -3 41 -9 60 -15 19 -5 36 -10 37 -10
2 0 -7 20 -19 44 l-21 44 -156 42 c-86 23 -163 43 -171 45 -36 9 -151 43 -155
46 -2 2 -29 49 -60 104 -32 55 -59 102 -61 104 -2 2 -8 -8 -15 -21z"/>
<path d="M672 1343 c-10 -18 -1 -49 59 -205 40 -101 73 -185 75 -186 1 -2 96
-19 211 -37 114 -19 221 -36 236 -39 26 -5 120 24 139 43 6 5 -118 33 -292 66
-14 3 -36 7 -50 10 -14 3 -34 7 -45 9 -124 24 -152 30 -166 37 -9 4 -35 52
-58 106 -97 221 -96 220 -109 196z"/>
<path d="M623 1274 c-6 -15 130 -470 145 -486 7 -7 163 -22 222 -21 19 0 62
13 95 28 l60 28 -55 8 c-30 3 -80 10 -110 13 -30 4 -75 9 -100 13 -25 3 -53 7
-63 8 -9 1 -21 6 -27 11 -9 9 -140 376 -140 393 0 18 -20 22 -27 5z"/>
<path d="M590 1224 c0 -40 145 -564 156 -564 7 0 31 9 55 20 44 20 42 22 -23
22 -24 1 -29 6 -39 42 -31 118 -139 490 -144 494 -3 3 -5 -3 -5 -14z"/>
</g>
</svg>
